<?xml version="1.0" encoding="UTF-8"?>
<svg width="504px" height="493px" viewBox="0 0 504 493" version="1.1" xmlns="http://www.w3.org/2000/svg" xmlns:xlink="http://www.w3.org/1999/xlink">
    <!-- Generator: Sketch 63.1 (92452) - https://sketch.com -->
    <title>Slice 1</title>
    <desc>Created with Sketch.</desc>
    <g id="Page-1" stroke="none" stroke-width="1" fill="none" fill-rule="evenodd">
        <g id="triangle" transform="translate(37.000000, 54.000000)" fill="#1D4D7A" fill-rule="nonzero">
            <path d="M36.5288568,7.5 C39.2083488,2.85898385 44.160254,-1.42108547e-14 49.5192379,-1.42108547e-14 C54.8782217,-1.42108547e-14 59.830127,2.85898385 62.5096189,7.5 L97.0288568,67.2890739 C99.7083488,71.93009 99.7083488,77.6480577 97.0288568,82.2890739 C94.3493649,86.93009 89.3974596,89.7890739 84.0384758,89.7890739 L15,89.7890739 C9.64101615,89.7890739 4.68911087,86.93009 2.00961894,82.2890739 C-0.669872981,77.6480577 -0.669872981,71.93009 2.00961894,67.2890739" id="Path"></path>
        </g>
        <g id="triangle" transform="translate(111.400000, 183.000000)" fill="#1D4D7A" fill-rule="nonzero">
            <path d="M36.5288568,7.5 C39.2083488,2.85898385 44.160254,-1.42108547e-14 49.5192379,-1.42108547e-14 C54.8782217,-1.42108547e-14 59.830127,2.85898385 62.5096189,7.5 L97.0288568,67.2890739 C99.7083488,71.93009 99.7083488,77.6480577 97.0288568,82.2890739 C94.3493649,86.93009 89.3974596,89.7890739 84.0384758,89.7890739 L15,89.7890739 C9.64101615,89.7890739 4.68911087,86.93009 2.00961894,82.2890739 C-0.669872981,77.6480577 -0.669872981,71.93009 2.00961894,67.2890739" id="Path"></path>
        </g>
        <g id="triangle" transform="translate(86.000000, 204.000000) rotate(-180.000000) translate(-86.000000, -204.000000) translate(36.000000, 159.000000)" fill="#1D4D7A" fill-rule="nonzero">
            <path d="M36.5288568,7.5 C39.2083488,2.85898385 44.160254,-1.42108547e-14 49.5192379,-1.42108547e-14 C54.8782217,-1.42108547e-14 59.830127,2.85898385 62.5096189,7.5 L97.0288568,67.2890739 C99.7083488,71.93009 99.7083488,77.6480577 97.0288568,82.2890739 C94.3493649,86.93009 89.3974596,89.7890739 84.0384758,89.7890739 L15,89.7890739 C9.64101615,89.7890739 4.68911087,86.93009 2.00961894,82.2890739 C-0.669872981,77.6480577 -0.669872981,71.93009 2.00961894,67.2890739 C19.2692379,37.3945369 19.2692379,37.3945369 36.5288568,7.5 Z" id="Path"></path>
        </g>
        <g id="triangle" transform="translate(461.850045, 178.127024) rotate(-240.000000) translate(-461.850045, -178.127024) translate(411.850045, 133.127024)" fill="#1D4D7A" fill-rule="nonzero">
            <path d="M36.5288568,7.5 C39.2083488,2.85898385 44.160254,-1.42108547e-14 49.5192379,-1.42108547e-14 C54.8782217,-1.42108547e-14 59.830127,2.85898385 62.5096189,7.5 L97.0288568,67.2890739 C99.7083488,71.93009 99.7083488,77.6480577 97.0288568,82.2890739 C94.3493649,86.93009 89.3974596,89.7890739 84.0384758,89.7890739 L15,89.7890739 C9.64101615,89.7890739 4.68911087,86.93009 2.00961894,82.2890739 C-0.669872981,77.6480577 -0.669872981,71.93009 2.00961894,67.2890739" id="Path"></path>
        </g>
        <g id="triangle" transform="translate(312.932768, 178.059314) rotate(-240.000000) translate(-312.932768, -178.059314) translate(262.932768, 133.059314)" fill="#1D4D7A" fill-rule="nonzero">
            <path d="M36.5288568,7.5 C39.2083488,2.85898385 44.160254,-1.42108547e-14 49.5192379,-1.42108547e-14 C54.8782217,-1.42108547e-14 59.830127,2.85898385 62.5096189,7.5 L97.0288568,67.2890739 C99.7083488,71.93009 99.7083488,77.6480577 97.0288568,82.2890739 C94.3493649,86.93009 89.3974596,89.7890739 84.0384758,89.7890739 L15,89.7890739 C9.64101615,89.7890739 4.68911087,86.93009 2.00961894,82.2890739 C-0.669872981,77.6480577 -0.669872981,71.93009 2.00961894,67.2890739" id="Path"></path>
        </g>
        <g id="triangle" transform="translate(371.417377, 124.760999) rotate(-60.000000) translate(-371.417377, -124.760999) translate(321.417377, 79.760999)" fill="#1D4D7A" fill-rule="nonzero">
            <path d="M36.5288568,7.5 C39.2083488,2.85898385 44.160254,-1.42108547e-14 49.5192379,-1.42108547e-14 C54.8782217,-1.42108547e-14 59.830127,2.85898385 62.5096189,7.5 L97.0288568,67.2890739 C99.7083488,71.93009 99.7083488,77.6480577 97.0288568,82.2890739 C94.3493649,86.93009 89.3974596,89.7890739 84.0384758,89.7890739 L15,89.7890739 C9.64101615,89.7890739 4.68911087,86.93009 2.00961894,82.2890739 C-0.669872981,77.6480577 -0.669872981,71.93009 2.00961894,67.2890739 C19.2692379,37.3945369 19.2692379,37.3945369 36.5288568,7.5 Z" id="Path"></path>
        </g>
        <g id="triangle" transform="translate(298.000000, 31.000000) rotate(-300.000000) translate(-298.000000, -31.000000) translate(248.000000, -14.000000)" fill="#3EA6E5" fill-rule="nonzero">
            <path d="M36.5288568,7.5 C39.2083488,2.85898385 44.160254,-1.42108547e-14 49.5192379,-1.42108547e-14 C54.8782217,-1.42108547e-14 59.830127,2.85898385 62.5096189,7.5 L97.0288568,67.2890739 C99.7083488,71.93009 99.7083488,77.6480577 97.0288568,82.2890739 C94.3493649,86.93009 89.3974596,89.7890739 84.0384758,89.7890739 L15,89.7890739 C9.64101615,89.7890739 4.68911087,86.93009 2.00961894,82.2890739 C-0.669872981,77.6480577 -0.669872981,71.93009 2.00961894,67.2890739" id="Path"></path>
        </g>
        <g id="triangle" transform="translate(225.000000, 159.000000) rotate(-300.000000) translate(-225.000000, -159.000000) translate(175.000000, 114.000000)" fill="#3EA6E5" fill-rule="nonzero">
            <path d="M36.5288568,7.5 C39.2083488,2.85898385 44.160254,-1.42108547e-14 49.5192379,-1.42108547e-14 C54.8782217,-1.42108547e-14 59.830127,2.85898385 62.5096189,7.5 L97.0288568,67.2890739 C99.7083488,71.93009 99.7083488,77.6480577 97.0288568,82.2890739 C94.3493649,86.93009 89.3974596,89.7890739 84.0384758,89.7890739 L15,89.7890739 C9.64101615,89.7890739 4.68911087,86.93009 2.00961894,82.2890739 C-0.669872981,77.6480577 -0.669872981,71.93009 2.00961894,67.2890739" id="Path"></path>
        </g>
        <path d="M192.649047,45.690899 C195.328539,41.0498829 200.280445,38.190899 205.639428,38.190899 C210.998412,38.190899 215.950318,41.0498829 218.629809,45.690899 L253.149047,105.479973 C255.828539,110.120989 255.828539,115.838957 253.149047,120.479973 C250.469555,125.120989 245.51765,127.979973 240.158666,127.979973 L171.120191,127.979973 C165.761207,127.979973 160.809301,125.120989 158.129809,120.479973 C155.450318,115.838957 155.450318,110.120989 158.129809,105.479973 C175.389428,75.5854359 175.389428,75.5854359 192.649047,45.690899 Z" id="Path" fill="#3EA6E5" fill-rule="nonzero" transform="translate(205.639428, 83.085436) rotate(-120.000000) translate(-205.639428, -83.085436) "></path>
        <g id="triangle" transform="translate(416.628593, 394.742731) rotate(-180.000000) translate(-416.628593, -394.742731) translate(366.628593, 349.742731)" fill="#3EA6E5" fill-rule="nonzero">
            <path d="M36.5288568,7.5 C39.2083488,2.85898385 44.160254,-1.42108547e-14 49.5192379,-1.42108547e-14 C54.8782217,-1.42108547e-14 59.830127,2.85898385 62.5096189,7.5 L97.0288568,67.2890739 C99.7083488,71.93009 99.7083488,77.6480577 97.0288568,82.2890739 C94.3493649,86.93009 89.3974596,89.7890739 84.0384758,89.7890739 L15,89.7890739 C9.64101615,89.7890739 4.68911087,86.93009 2.00961894,82.2890739 C-0.669872981,77.6480577 -0.669872981,71.93009 2.00961894,67.2890739" id="Path"></path>
        </g>
        <g id="triangle" transform="translate(342.277341, 266.522877) rotate(-180.000000) translate(-342.277341, -266.522877) translate(292.277341, 221.522877)" fill="#3EA6E5" fill-rule="nonzero">
            <path d="M36.5288568,7.5 C39.2083488,2.85898385 44.160254,-1.42108547e-14 49.5192379,-1.42108547e-14 C54.8782217,-1.42108547e-14 59.830127,2.85898385 62.5096189,7.5 L97.0288568,67.2890739 C99.7083488,71.93009 99.7083488,77.6480577 97.0288568,82.2890739 C94.3493649,86.93009 89.3974596,89.7890739 84.0384758,89.7890739 L15,89.7890739 C9.64101615,89.7890739 4.68911087,86.93009 2.00961894,82.2890739 C-0.669872981,77.6480577 -0.669872981,71.93009 2.00961894,67.2890739" id="Path"></path>
        </g>
        <path d="M404.711187,251.318875 C407.390679,246.677859 412.342584,243.818875 417.701568,243.818875 C423.060552,243.818875 428.012457,246.677859 430.691949,251.318875 L465.211187,311.107949 C467.890679,315.748965 467.890679,321.466933 465.211187,326.107949 C462.531695,330.748965 457.579789,333.607949 452.220806,333.607949 L383.18233,333.607949 C377.823346,333.607949 372.871441,330.748965 370.191949,326.107949 C367.512457,321.466933 367.512457,315.748965 370.191949,311.107949 C387.451568,281.213412 387.451568,281.213412 404.711187,251.318875 Z" id="Path" fill="#3EA6E5" fill-rule="nonzero" transform="translate(417.701568, 288.713412) rotate(-360.000000) translate(-417.701568, -288.713412) "></path>
        <g id="triangle" transform="translate(42.153725, 315.485752) rotate(-60.000000) translate(-42.153725, -315.485752) translate(-7.846275, 270.485752)" fill="#3EA6E5" fill-rule="nonzero">
            <path d="M36.5288568,7.5 C39.2083488,2.85898385 44.160254,-1.42108547e-14 49.5192379,-1.42108547e-14 C54.8782217,-1.42108547e-14 59.830127,2.85898385 62.5096189,7.5 L97.0288568,67.2890739 C99.7083488,71.93009 99.7083488,77.6480577 97.0288568,82.2890739 C94.3493649,86.93009 89.3974596,89.7890739 84.0384758,89.7890739 L15,89.7890739 C9.64101615,89.7890739 4.68911087,86.93009 2.00961894,82.2890739 C-0.669872981,77.6480577 -0.669872981,71.93009 2.00961894,67.2890739" id="Path"></path>
        </g>
        <g id="triangle" transform="translate(190.371002, 315.205606) rotate(-60.000000) translate(-190.371002, -315.205606) translate(140.371002, 270.205606)" fill="#3EA6E5" fill-rule="nonzero">
            <path d="M36.5288568,7.5 C39.2083488,2.85898385 44.160254,-1.42108547e-14 49.5192379,-1.42108547e-14 C54.8782217,-1.42108547e-14 59.830127,2.85898385 62.5096189,7.5 L97.0288568,67.2890739 C99.7083488,71.93009 99.7083488,77.6480577 97.0288568,82.2890739 C94.3493649,86.93009 89.3974596,89.7890739 84.0384758,89.7890739 L15,89.7890739 C9.64101615,89.7890739 4.68911087,86.93009 2.00961894,82.2890739 C-0.669872981,77.6480577 -0.669872981,71.93009 2.00961894,67.2890739" id="Path"></path>
        </g>
        <path d="M120.450941,332.035098 C123.130433,327.394082 128.082338,324.535098 133.441322,324.535098 C138.800305,324.535098 143.752211,327.394082 146.431703,332.035098 L180.950941,391.824172 C183.630433,396.465188 183.630433,402.183156 180.950941,406.824172 C178.271449,411.465188 173.319543,414.324172 167.96056,414.324172 L98.9220838,414.324172 C93.5630999,414.324172 88.6111946,411.465188 85.9317027,406.824172 C83.2522108,402.183156 83.2522108,396.465188 85.9317027,391.824172 C103.191322,361.929635 103.191322,361.929635 120.450941,332.035098 Z" id="Path" fill="#3EA6E5" fill-rule="nonzero" transform="translate(133.441322, 369.429635) rotate(-240.000000) translate(-133.441322, -369.429635) "></path>
        <g id="triangle" transform="translate(205.484330, 462.490164) rotate(-120.000000) translate(-205.484330, -462.490164) translate(155.484330, 417.490164)" fill="#1D4D7A" fill-rule="nonzero">
            <path d="M36.5288568,7.5 C39.2083488,2.85898385 44.160254,-1.42108547e-14 49.5192379,-1.42108547e-14 C54.8782217,-1.42108547e-14 59.830127,2.85898385 62.5096189,7.5 L97.0288568,67.2890739 C99.7083488,71.93009 99.7083488,77.6480577 97.0288568,82.2890739 C94.3493649,86.93009 89.3974596,89.7890739 84.0384758,89.7890739 L15,89.7890739 C9.64101615,89.7890739 4.68911087,86.93009 2.00961894,82.2890739 C-0.669872981,77.6480577 -0.669872981,71.93009 2.00961894,67.2890739" id="Path"></path>
        </g>
        <g id="triangle" transform="translate(280.001607, 333.557874) rotate(-120.000000) translate(-280.001607, -333.557874) translate(230.001607, 288.557874)" fill="#1D4D7A" fill-rule="nonzero">
            <path d="M36.5288568,7.5 C39.2083488,2.85898385 44.160254,-1.42108547e-14 49.5192379,-1.42108547e-14 C54.8782217,-1.42108547e-14 59.830127,2.85898385 62.5096189,7.5 L97.0288568,67.2890739 C99.7083488,71.93009 99.7083488,77.6480577 97.0288568,82.2890739 C94.3493649,86.93009 89.3974596,89.7890739 84.0384758,89.7890739 L15,89.7890739 C9.64101615,89.7890739 4.68911087,86.93009 2.00961894,82.2890739 C-0.669872981,77.6480577 -0.669872981,71.93009 2.00961894,67.2890739" id="Path"></path>
        </g>
        <g id="triangle" transform="translate(296.916998, 410.856189) rotate(-300.000000) translate(-296.916998, -410.856189) translate(246.916998, 365.856189)" fill="#1D4D7A" fill-rule="nonzero">
            <path d="M36.5288568,7.5 C39.2083488,2.85898385 44.160254,-1.42108547e-14 49.5192379,-1.42108547e-14 C54.8782217,-1.42108547e-14 59.830127,2.85898385 62.5096189,7.5 L97.0288568,67.2890739 C99.7083488,71.93009 99.7083488,77.6480577 97.0288568,82.2890739 C94.3493649,86.93009 89.3974596,89.7890739 84.0384758,89.7890739 L15,89.7890739 C9.64101615,89.7890739 4.68911087,86.93009 2.00961894,82.2890739 C-0.669872981,77.6480577 -0.669872981,71.93009 2.00961894,67.2890739 C19.2692379,37.3945369 19.2692379,37.3945369 36.5288568,7.5 Z" id="Path"></path>
        </g>
    </g>
</svg>