<?xml version="1.0" encoding="UTF-8"?>
<svg width="600px" height="600px" viewBox="0 0 600 600" version="1.1" xmlns="http://www.w3.org/2000/svg" xmlns:xlink="http://www.w3.org/1999/xlink">
    <!-- Generator: Sketch 63.1 (92452) - https://sketch.com -->
    <title>Group</title>
    <desc>Created with Sketch.</desc>
    <g id="Page-1" stroke="none" stroke-width="1" fill="none" fill-rule="evenodd">
        <g id="Group">
            <circle id="Oval" fill="#FFFFFF" cx="300" cy="300" r="300"></circle>
            <g id="dmlogo" transform="translate(50.000000, 50.000000)" fill-rule="nonzero">
                <g id="triangle" transform="translate(53.832117, 78.900709)" fill="#1D4D7A">
                    <path d="M33.3292489,6.64893617 C35.7740409,2.53456015 40.2922026,-1.25982754e-14 45.1817864,-1.25982754e-14 C50.0713702,-1.25982754e-14 54.5895319,2.53456015 57.0343238,6.64893617 L88.5299788,59.6534343 C90.9747708,63.7678103 90.9747708,68.8369306 88.5299788,72.9513066 C86.085187,77.0656826 81.5670252,79.6002428 76.6774414,79.6002428 L13.6861314,79.6002428 C8.79654758,79.6002428 4.27838583,77.0656826 1.83359392,72.9513066 C-0.611197975,68.8369306 -0.611197975,63.7678103 1.83359392,59.6534343" id="Path"></path>
                </g>
                <g id="triangle" transform="translate(121.715328, 193.262411)" fill="#1D4D7A">
                    <path d="M33.3292489,6.64893617 C35.7740409,2.53456015 40.2922026,-1.25982754e-14 45.1817864,-1.25982754e-14 C50.0713702,-1.25982754e-14 54.5895319,2.53456015 57.0343238,6.64893617 L88.5299788,59.6534343 C90.9747708,63.7678103 90.9747708,68.8369306 88.5299788,72.9513066 C86.085187,77.0656826 81.5670252,79.6002428 76.6774414,79.6002428 L13.6861314,79.6002428 C8.79654758,79.6002428 4.27838583,77.0656826 1.83359392,72.9513066 C-0.611197975,68.8369306 -0.611197975,63.7678103 1.83359392,59.6534343" id="Path"></path>
                </g>
                <g id="triangle" transform="translate(98.540146, 211.879433) rotate(-180.000000) translate(-98.540146, -211.879433) translate(52.919708, 171.985816)" fill="#1D4D7A">
                    <path d="M33.3292489,6.64893617 C35.7740409,2.53456015 40.2922026,-1.25982754e-14 45.1817864,-1.25982754e-14 C50.0713702,-1.25982754e-14 54.5895319,2.53456015 57.0343238,6.64893617 L88.5299788,59.6534343 C90.9747708,63.7678103 90.9747708,68.8369306 88.5299788,72.9513066 C86.085187,77.0656826 81.5670252,79.6002428 76.6774414,79.6002428 L13.6861314,79.6002428 C8.79654758,79.6002428 4.27838583,77.0656826 1.83359392,72.9513066 C-0.611197975,68.8369306 -0.611197975,63.7678103 1.83359392,59.6534343 C17.5814214,33.1511852 17.5814214,33.1511852 33.3292489,6.64893617 Z" id="Path"></path>
                </g>
                <g id="triangle" transform="translate(441.469019, 188.942397) rotate(120.000000) translate(-441.469019, -188.942397) translate(395.848581, 149.048780)" fill="#1D4D7A">
                    <path d="M33.3292489,6.64893617 C35.7740409,2.53456015 40.2922026,-1.25982754e-14 45.1817864,-1.25982754e-14 C50.0713702,-1.25982754e-14 54.5895319,2.53456015 57.0343238,6.64893617 L88.5299788,59.6534343 C90.9747708,63.7678103 90.9747708,68.8369306 88.5299788,72.9513066 C86.085187,77.0656826 81.5670252,79.6002428 76.6774414,79.6002428 L13.6861314,79.6002428 C8.79654758,79.6002428 4.27838583,77.0656826 1.83359392,72.9513066 C-0.611197975,68.8369306 -0.611197975,63.7678103 1.83359392,59.6534343" id="Path"></path>
                </g>
                <g id="triangle" transform="translate(305.595591, 188.882371) rotate(120.000000) translate(-305.595591, -188.882371) translate(259.975153, 148.988754)" fill="#1D4D7A">
                    <path d="M33.3292489,6.64893617 C35.7740409,2.53456015 40.2922026,-1.25982754e-14 45.1817864,-1.25982754e-14 C50.0713702,-1.25982754e-14 54.5895319,2.53456015 57.0343238,6.64893617 L88.5299788,59.6534343 C90.9747708,63.7678103 90.9747708,68.8369306 88.5299788,72.9513066 C86.085187,77.0656826 81.5670252,79.6002428 76.6774414,79.6002428 L13.6861314,79.6002428 C8.79654758,79.6002428 4.27838583,77.0656826 1.83359392,72.9513066 C-0.611197975,68.8369306 -0.611197975,63.7678103 1.83359392,59.6534343" id="Path"></path>
                </g>
                <g id="triangle" transform="translate(358.957461, 141.632091) rotate(-60.000000) translate(-358.957461, -141.632091) translate(313.337023, 101.738474)" fill="#1D4D7A">
                    <path d="M33.3292489,6.64893617 C35.7740409,2.53456015 40.2922026,-1.25982754e-14 45.1817864,-1.25982754e-14 C50.0713702,-1.25982754e-14 54.5895319,2.53456015 57.0343238,6.64893617 L88.5299788,59.6534343 C90.9747708,63.7678103 90.9747708,68.8369306 88.5299788,72.9513066 C86.085187,77.0656826 81.5670252,79.6002428 76.6774414,79.6002428 L13.6861314,79.6002428 C8.79654758,79.6002428 4.27838583,77.0656826 1.83359392,72.9513066 C-0.611197975,68.8369306 -0.611197975,63.7678103 1.83359392,59.6534343 C17.5814214,33.1511852 17.5814214,33.1511852 33.3292489,6.64893617 Z" id="Path"></path>
                </g>
                <g id="triangle" transform="translate(291.970803, 58.510638) rotate(60.000000) translate(-291.970803, -58.510638) translate(246.350365, 18.617021)" fill="#3EA6E5">
                    <path d="M33.3292489,6.64893617 C35.7740409,2.53456015 40.2922026,-1.25982754e-14 45.1817864,-1.25982754e-14 C50.0713702,-1.25982754e-14 54.5895319,2.53456015 57.0343238,6.64893617 L88.5299788,59.6534343 C90.9747708,63.7678103 90.9747708,68.8369306 88.5299788,72.9513066 C86.085187,77.0656826 81.5670252,79.6002428 76.6774414,79.6002428 L13.6861314,79.6002428 C8.79654758,79.6002428 4.27838583,77.0656826 1.83359392,72.9513066 C-0.611197975,68.8369306 -0.611197975,63.7678103 1.83359392,59.6534343" id="Path"></path>
                </g>
                <g id="triangle" transform="translate(225.364964, 171.985816) rotate(60.000000) translate(-225.364964, -171.985816) translate(179.744526, 132.092199)" fill="#3EA6E5">
                    <path d="M33.3292489,6.64893617 C35.7740409,2.53456015 40.2922026,-1.25982754e-14 45.1817864,-1.25982754e-14 C50.0713702,-1.25982754e-14 54.5895319,2.53456015 57.0343238,6.64893617 L88.5299788,59.6534343 C90.9747708,63.7678103 90.9747708,68.8369306 88.5299788,72.9513066 C86.085187,77.0656826 81.5670252,79.6002428 76.6774414,79.6002428 L13.6861314,79.6002428 C8.79654758,79.6002428 4.27838583,77.0656826 1.83359392,72.9513066 C-0.611197975,68.8369306 -0.611197975,63.7678103 1.83359392,59.6534343" id="Path"></path>
                </g>
                <path d="M197.189093,70.9541434 C199.633885,66.7196397 204.08796,64.0740768 208.873509,64.014013 C213.659059,63.9539491 218.049047,66.4885093 220.389804,70.6629491 L250.545219,124.441236 C252.885977,128.615675 252.82189,133.795799 250.377098,138.030302 C247.932306,142.264806 243.478232,144.910369 238.692681,144.970433 L177.041613,145.744221 C172.256062,145.804285 167.866075,143.269725 165.525317,139.095285 C163.184559,134.920845 163.248647,129.740722 165.693438,125.506218 C181.441265,98.2301807 181.441265,98.2301807 197.189093,70.9541434 Z" id="Path" fill="#3EA6E5" transform="translate(208.035268, 104.879117) rotate(-120.000000) translate(-208.035268, -104.879117) "></path>
                <g id="triangle" transform="translate(400.208570, 380.977598) rotate(-180.000000) translate(-400.208570, -380.977598) translate(354.588132, 341.083981)" fill="#3EA6E5">
                    <path d="M33.3292489,6.64893617 C35.7740409,2.53456015 40.2922026,-1.25982754e-14 45.1817864,-1.25982754e-14 C50.0713702,-1.25982754e-14 54.5895319,2.53456015 57.0343238,6.64893617 L88.5299788,59.6534343 C90.9747708,63.7678103 90.9747708,68.8369306 88.5299788,72.9513066 C86.085187,77.0656826 81.5670252,79.6002428 76.6774414,79.6002428 L13.6861314,79.6002428 C8.79654758,79.6002428 4.27838583,77.0656826 1.83359392,72.9513066 C-0.611197975,68.8369306 -0.611197975,63.7678103 1.83359392,59.6534343" id="Path"></path>
                </g>
                <g id="triangle" transform="translate(332.369837, 267.307515) rotate(-180.000000) translate(-332.369837, -267.307515) translate(286.749399, 227.413898)" fill="#3EA6E5">
                    <path d="M33.3292489,6.64893617 C35.7740409,2.53456015 40.2922026,-1.25982754e-14 45.1817864,-1.25982754e-14 C50.0713702,-1.25982754e-14 54.5895319,2.53456015 57.0343238,6.64893617 L88.5299788,59.6534343 C90.9747708,63.7678103 90.9747708,68.8369306 88.5299788,72.9513066 C86.085187,77.0656826 81.5670252,79.6002428 76.6774414,79.6002428 L13.6861314,79.6002428 C8.79654758,79.6002428 4.27838583,77.0656826 1.83359392,72.9513066 C-0.611197975,68.8369306 -0.611197975,63.7678103 1.83359392,59.6534343" id="Path"></path>
                </g>
                <path d="M389.335025,253.82879 C391.779817,249.714414 396.297978,247.179854 401.187562,247.179854 C406.077146,247.179854 410.595307,249.714414 413.040099,253.82879 L444.535755,306.833288 C446.980547,310.947664 446.980547,316.016785 444.535755,320.13116 C442.090963,324.245536 437.5728,326.780097 432.683217,326.780097 L369.691907,326.780097 C364.802323,326.780097 360.284161,324.245536 357.83937,320.13116 C355.394578,316.016785 355.394578,310.947664 357.83937,306.833288 C373.587197,280.331039 373.587197,280.331039 389.335025,253.82879 Z" id="Path" fill="#3EA6E5"></path>
                <g id="triangle" transform="translate(58.534421, 310.714319) rotate(-60.000000) translate(-58.534421, -310.714319) translate(12.913983, 270.820702)" fill="#3EA6E5">
                    <path d="M33.3292489,6.64893617 C35.7740409,2.53456015 40.2922026,-1.25982754e-14 45.1817864,-1.25982754e-14 C50.0713702,-1.25982754e-14 54.5895319,2.53456015 57.0343238,6.64893617 L88.5299788,59.6534343 C90.9747708,63.7678103 90.9747708,68.8369306 88.5299788,72.9513066 C86.085187,77.0656826 81.5670252,79.6002428 76.6774414,79.6002428 L13.6861314,79.6002428 C8.79654758,79.6002428 4.27838583,77.0656826 1.83359392,72.9513066 C-0.611197975,68.8369306 -0.611197975,63.7678103 1.83359392,59.6534343" id="Path"></path>
                </g>
                <g id="triangle" transform="translate(193.769162, 310.465963) rotate(-60.000000) translate(-193.769162, -310.465963) translate(148.148724, 270.572346)" fill="#3EA6E5">
                    <path d="M33.3292489,6.64893617 C35.7740409,2.53456015 40.2922026,-1.25982754e-14 45.1817864,-1.25982754e-14 C50.0713702,-1.25982754e-14 54.5895319,2.53456015 57.0343238,6.64893617 L88.5299788,59.6534343 C90.9747708,63.7678103 90.9747708,68.8369306 88.5299788,72.9513066 C86.085187,77.0656826 81.5670252,79.6002428 76.6774414,79.6002428 L13.6861314,79.6002428 C8.79654758,79.6002428 4.27838583,77.0656826 1.83359392,72.9513066 C-0.611197975,68.8369306 -0.611197975,63.7678103 1.83359392,59.6534343" id="Path"></path>
                </g>
                <path d="M129.136427,324.51419 C131.477185,320.33975 135.867172,317.80519 140.652722,317.865253 C145.438272,317.925317 149.892347,320.57088 152.337139,324.805384 L183.832794,379.357459 C186.277586,383.591962 186.341673,388.772086 184.000915,392.946525 C181.660157,397.120965 177.270169,399.655525 172.48462,399.595461 L110.83355,398.821673 C106.048,398.761609 101.593925,396.116046 99.1491334,391.881543 C96.7043416,387.647039 96.6402542,382.466916 98.9810123,378.292476 C114.05872,351.403333 114.05872,351.403333 129.136427,324.51419 Z" id="Path" fill="#3EA6E5" transform="translate(141.490964, 358.730357) rotate(120.000000) translate(-141.490964, -358.730357) "></path>
                <g id="triangle" transform="translate(207.558695, 441.037379) rotate(-120.000000) translate(-207.558695, -441.037379) translate(161.938257, 401.143762)" fill="#1D4D7A">
                    <path d="M33.3292489,6.64893617 C35.7740409,2.53456015 40.2922026,-1.25982754e-14 45.1817864,-1.25982754e-14 C50.0713702,-1.25982754e-14 54.5895319,2.53456015 57.0343238,6.64893617 L88.5299788,59.6534343 C90.9747708,63.7678103 90.9747708,68.8369306 88.5299788,72.9513066 C86.085187,77.0656826 81.5670252,79.6002428 76.6774414,79.6002428 L13.6861314,79.6002428 C8.79654758,79.6002428 4.27838583,77.0656826 1.83359392,72.9513066 C-0.611197975,68.8369306 -0.611197975,63.7678103 1.83359392,59.6534343" id="Path"></path>
                </g>
                <g id="triangle" transform="translate(275.548911, 326.735704) rotate(-120.000000) translate(-275.548911, -326.735704) translate(229.928474, 286.842087)" fill="#1D4D7A">
                    <path d="M33.3292489,6.64893617 C35.7740409,2.53456015 40.2922026,-1.25982754e-14 45.1817864,-1.25982754e-14 C50.0713702,-1.25982754e-14 54.5895319,2.53456015 57.0343238,6.64893617 L88.5299788,59.6534343 C90.9747708,63.7678103 90.9747708,68.8369306 88.5299788,72.9513066 C86.085187,77.0656826 81.5670252,79.6002428 76.6774414,79.6002428 L13.6861314,79.6002428 C8.79654758,79.6002428 4.27838583,77.0656826 1.83359392,72.9513066 C-0.611197975,68.8369306 -0.611197975,63.7678103 1.83359392,59.6534343" id="Path"></path>
                </g>
                <g id="triangle" transform="translate(290.982662, 395.262579) rotate(60.000000) translate(-290.982662, -395.262579) translate(245.362224, 355.368962)" fill="#1D4D7A">
                    <path d="M33.3292489,6.64893617 C35.7740409,2.53456015 40.2922026,-1.25982754e-14 45.1817864,-1.25982754e-14 C50.0713702,-1.25982754e-14 54.5895319,2.53456015 57.0343238,6.64893617 L88.5299788,59.6534343 C90.9747708,63.7678103 90.9747708,68.8369306 88.5299788,72.9513066 C86.085187,77.0656826 81.5670252,79.6002428 76.6774414,79.6002428 L13.6861314,79.6002428 C8.79654758,79.6002428 4.27838583,77.0656826 1.83359392,72.9513066 C-0.611197975,68.8369306 -0.611197975,63.7678103 1.83359392,59.6534343 C17.5814214,33.1511852 17.5814214,33.1511852 33.3292489,6.64893617 Z" id="Path"></path>
                </g>
            </g>
        </g>
    </g>
</svg>